<?xml version="1.0" encoding="utf-8"?>
<!-- Generator: Adobe Illustrator 25.4.1, SVG Export Plug-In . SVG Version: 6.00 Build 0)  -->
<svg version="1.1" id="Layer_1" xmlns="http://www.w3.org/2000/svg" xmlns:xlink="http://www.w3.org/1999/xlink" x="0px" y="0px"
	 viewBox="0 0 1445 185" style="enable-background:new 0 0 1445 185;">
<style type="text/css">
	.st0{display:none;}
	.st1{fill:#20D324;}
	.st2{fill:#48B548;}
	.st3{display:none;fill:#FFFFFF;}
	.st4{display:none;fill:#FDFFFD;}
</style>
<g class="st0">
</g>
<rect x="40" y="20.94" class="st0" width="1364.12" height="20.44"/>
<rect x="19.56" y="41.4" class="st0" width="20.44" height="20.44"/>
<polygon class="st0" points="0,61.82 0,82.26 0,123.14 20.44,123.14 20.44,82.26 20.44,61.82 "/>
<rect x="20.44" y="123.14" class="st0" width="20.44" height="20.44"/>
<rect x="40" y="143.58" class="st0" width="1364.12" height="20.44"/>
<rect x="1404.12" y="41.4" class="st0" width="20.44" height="20.44"/>
<polygon class="st0" points="1424.56,61.82 1424.56,82.26 1424.56,123.14 1445,123.14 1445,82.26 1445,61.82 "/>
<rect x="1404.12" y="123.14" class="st0" width="20.44" height="20.44"/>
<g>
	<polygon class="st1" points="1404.12,61.84 1404.12,61.82 1404.12,41.42 40,41.42 40,61.82 40,61.84 19.56,61.84 19.56,123.14 
		40,123.14 40,143.58 1404.12,143.58 1404.12,123.14 1424.56,123.14 1424.56,61.84 	"/>
	<rect x="40" y="123.14" class="st2" width="1364.12" height="20.44"/>
</g>
<polygon class="st3" points="1363.3,51.59 1383.74,51.59 1383.74,71.99 1363.24,71.99 "/>
<rect x="1383.68" y="72.01" class="st4" width="20.44" height="20.48"/>
</svg>
