<?xml version="1.0" encoding="utf-8"?>
<!-- Generator: Adobe Illustrator 25.4.1, SVG Export Plug-In . SVG Version: 6.00 Build 0)  -->
<svg version="1.1" id="Layer_1" xmlns="http://www.w3.org/2000/svg" xmlns:xlink="http://www.w3.org/1999/xlink" x="0px" y="0px"
	 viewBox="0 0 1445 185" style="enable-background:new 0 0 1445 185;" xml:space="preserve">
<style type="text/css">
	.st0{display:none;}
	.st1{display:inline;fill:#20D324;}
	.st2{display:inline;fill:#48B548;}
	.st3{fill:#FFFFFF;}
	.st4{fill:#FDFFFD;}
	.st5{fill:#2B2F3E;}
</style>
<rect x="40" y="20.9" width="1364.1" height="20.4"/>
<rect x="19.6" y="41.4" width="20.4" height="20.4"/>
<polygon points="0,61.8 0,82.3 0,123.1 20.4,123.1 20.4,82.3 20.4,61.8 "/>
<rect x="20.4" y="123.1" width="20.4" height="20.4"/>
<rect x="40" y="143.6" width="1364.1" height="20.4"/>
<rect x="1404.1" y="41.4" width="20.4" height="20.4"/>
<polygon points="1424.6,61.8 1424.6,82.3 1424.6,123.1 1445,123.1 1445,82.3 1445,61.8 "/>
<rect x="1404.1" y="123.1" width="20.4" height="20.4"/>
<g class="st0">
	<polygon class="st1" points="1404.1,61.8 1404.1,61.8 1404.1,41.4 40,41.4 40,61.8 40,61.8 19.6,61.8 19.6,123.1 40,123.1 
		40,143.6 1404.1,143.6 1404.1,123.1 1424.6,123.1 1424.6,61.8 	"/>
	<rect x="40" y="123.1" class="st2" width="1364.1" height="20.4"/>
</g>
<polygon class="st3" points="1363.3,51.6 1383.7,51.6 1383.7,72 1363.2,72 "/>
<rect x="1383.7" y="72" class="st4" width="20.4" height="20.5"/>
<polygon class="st5" points="0,61.8 19.6,61.8 19.6,41.4 40,41.4 40,20.9 1404.1,20.9 1404.1,41.4 1424.6,41.4 1424.6,61.8 
	1445,61.8 1445,0 0,0 "/>
<polygon class="st5" points="1445,123.2 1424.6,123.1 1424.6,143.6 1404.1,143.6 1404.1,164 40.9,164.1 40.9,143.6 20.4,143.6 
	20.4,123.2 0,123.2 0,185 1445,185 "/>
</svg>
