<?xml version="1.0" encoding="utf-8"?>
<!-- Generator: Adobe Illustrator 25.4.1, SVG Export Plug-In . SVG Version: 6.00 Build 0)  -->
<svg version="1.1" id="Layer_2" xmlns="http://www.w3.org/2000/svg" xmlns:xlink="http://www.w3.org/1999/xlink" x="0px" y="0px"
	 viewBox="0 0 233.7 214.23" style="enable-background:new 0 0 233.7 214.23;" xml:space="preserve">
<style type="text/css">
	.st0{fill:none;stroke:#32FF00;stroke-miterlimit:10;}
	.st1{fill:#FFFFFF;}
	.st2{fill:#FFFFFF;stroke:#FFFFFF;stroke-width:0.2;stroke-miterlimit:10;}
	.st3{fill:none;stroke:#FFFFFF;stroke-width:0.2;stroke-miterlimit:10;}
</style>
<path class="st0" d="M58.36,116.85"/>
<g>
	<g>
		<g>
			<rect x="38.95" width="58.43" height="19.48"/>
			<rect x="19.48" y="19.48" width="19.48" height="19.48"/>
			<rect y="38.95" width="19.48" height="77.9"/>
			<rect x="19.48" y="116.85" width="19.48" height="19.48"/>
			<rect x="38.95" y="136.33" width="19.48" height="19.48"/>
			<rect x="58.43" y="155.8" width="19.48" height="19.48"/>
			<rect x="77.9" y="175.28" width="19.48" height="19.48"/>
			<rect x="97.38" y="194.75" width="19.48" height="19.48"/>
			<rect x="97.38" y="19.48" width="19.48" height="19.48"/>
		</g>
		<g>
			<rect x="136.33" y="0" width="58.43" height="19.48"/>
			<rect x="194.75" y="19.48" width="19.48" height="19.48"/>
			<rect x="214.23" y="38.95" width="19.48" height="77.9"/>
			<rect x="194.75" y="116.85" width="19.48" height="19.48"/>
			<rect x="175.28" y="136.33" width="19.48" height="19.48"/>
			<rect x="155.8" y="155.8" width="19.48" height="19.48"/>
			<rect x="136.33" y="175.28" width="19.48" height="19.48"/>
			<rect x="116.85" y="194.75" width="19.48" height="19.48"/>
			<rect x="116.85" y="19.48" width="19.48" height="19.48"/>
		</g>
	</g>
	<g>
		<polygon class="st1" points="38.94,57.68 38.94,58.43 38.94,57.68 		"/>
		<g>
			<polygon class="st1" points="38.95,38.95 38.94,57.68 58.36,57.68 58.36,58.43 77.79,58.43 77.79,38.95 			"/>
			<rect x="38.94" y="58.43" class="st1" width="19.43" height="19.48"/>
		</g>
		<rect x="38.94" y="57.68" class="st1" width="19.43" height="0.74"/>
	</g>
	<polygon class="st2" points="38.94,97.38 58.36,97.38 58.36,116.85 38.95,116.85 	"/>
</g>
<polyline class="st3" points="19.48,107.11 38.95,107.11 38.94,97.38 58.36,97.38 58.36,107.11 116.85,107.11 116.85,38.95 
	97.38,38.95 97.38,19.48 38.95,19.48 38.95,38.95 19.48,38.95 "/>
</svg>
