<?xml version="1.0" encoding="utf-8"?>
<!-- Generator: Adobe Illustrator 25.4.1, SVG Export Plug-In . SVG Version: 6.00 Build 0)  -->
<svg version="1.1" id="Layer_2" xmlns="http://www.w3.org/2000/svg" xmlns:xlink="http://www.w3.org/1999/xlink" x="0px" y="0px"
	 viewBox="0 0 233.7 214.23" style="enable-background:new 0 0 233.7 214.23;" xml:space="preserve">
<style type="text/css">
	.st0{fill:#FF0000;}
	.st1{fill:#FFFFFF;}
	.st2{fill:#850100;}
</style>
<g>
	<g>
		<g>
			<rect x="38.95" width="58.43" height="19.48"/>
			<rect x="19.48" y="19.48" width="19.48" height="19.48"/>
			<rect y="38.95" width="19.48" height="77.9"/>
			<rect x="19.48" y="116.85" width="19.48" height="19.48"/>
			<rect x="38.95" y="136.33" width="19.48" height="19.48"/>
			<rect x="58.43" y="155.8" width="19.48" height="19.48"/>
			<rect x="77.9" y="175.28" width="19.48" height="19.48"/>
			<rect x="97.38" y="194.75" width="19.48" height="19.48"/>
			<rect x="97.38" y="19.48" width="19.48" height="19.48"/>
		</g>
		<g>
			<rect x="136.33" y="0" width="58.43" height="19.48"/>
			<rect x="194.75" y="19.48" width="19.48" height="19.48"/>
			<rect x="214.23" y="38.95" width="19.48" height="77.9"/>
			<rect x="194.75" y="116.85" width="19.48" height="19.48"/>
			<rect x="175.28" y="136.33" width="19.48" height="19.48"/>
			<rect x="155.8" y="155.8" width="19.48" height="19.48"/>
			<rect x="136.33" y="175.28" width="19.48" height="19.48"/>
			<rect x="116.85" y="194.75" width="19.48" height="19.48"/>
			<rect x="116.85" y="19.48" width="19.48" height="19.48"/>
		</g>
	</g>
	<polygon class="st0" points="38.95,19.48 38.95,38.95 19.48,38.95 19.48,116.85 38.95,116.85 38.95,136.33 58.43,136.33 
		58.43,155.8 77.9,155.8 77.9,175.28 97.38,175.28 97.38,194.75 136.33,194.75 136.33,175.28 155.8,175.28 155.8,155.8 
		175.28,155.8 175.28,136.33 194.75,136.33 194.75,116.85 214.23,116.85 214.23,38.95 194.75,38.95 194.75,19.48 136.33,19.48 
		136.33,38.95 97.38,38.95 97.38,19.48 	"/>
	<polygon class="st1" points="38.95,38.95 77.79,38.95 77.79,58.43 38.94,58.43 	"/>
	<rect x="38.94" y="57.68" class="st1" width="19.43" height="20.22"/>
	<polygon class="st1" points="38.94,97.38 58.36,97.38 58.36,116.85 38.95,116.85 	"/>
	<rect x="175.28" y="19.48" class="st2" width="19.48" height="19.48"/>
	<rect x="194.75" y="38.95" class="st2" width="19.48" height="77.9"/>
	<rect x="175.28" y="116.85" class="st2" width="19.48" height="19.48"/>
	<rect x="155.8" y="136.33" class="st2" width="19.48" height="19.48"/>
	<rect x="136.33" y="155.8" class="st2" width="19.48" height="19.48"/>
	<rect x="116.85" y="175.28" class="st2" width="19.48" height="19.48"/>
</g>
</svg>
