<?xml version="1.0" encoding="utf-8"?>
<!-- Generator: Adobe Illustrator 25.4.1, SVG Export Plug-In . SVG Version: 6.00 Build 0)  -->
<svg version="1.1" id="Layer_1" xmlns="http://www.w3.org/2000/svg" xmlns:xlink="http://www.w3.org/1999/xlink" x="0px" y="0px"
	 viewBox="0 0 347.47 143.04" style="enable-background:new 0 0 347.47 143.04;" xml:space="preserve">
<style type="text/css">
	.st0{fill:#20D324;}
	.st1{fill:#48B548;}
	.st2{fill:#FFFFFF;}
	.st3{fill:#FDFFFD;}
</style>
<g>
</g>
<rect x="20.44" y="102.16" width="20.44" height="20.44"/>
<rect x="306.59" y="20.42" width="20.44" height="20.44"/>
<rect x="306.59" y="102.16" width="20.44" height="20.44"/>
<g>
	<rect x="40.88" width="265.71" height="20.44"/>
	<rect y="40.84" width="20.44" height="20.44"/>
	<rect x="20.44" y="20.42" width="20.44" height="20.44"/>
	<rect x="0" y="61.28" width="20.44" height="40.88"/>
	<rect x="40.88" y="122.6" width="265.71" height="20.44"/>
	<rect x="327.03" y="40.84" width="20.44" height="20.44"/>
	<rect x="327.03" y="61.28" width="20.44" height="40.88"/>
	<rect x="40.88" y="40.84" class="st0" width="265.71" height="81.76"/>
</g>
<rect x="40.88" y="20.44" class="st0" width="265.71" height="20.4"/>
<rect x="20.44" y="40.86" class="st0" width="20.44" height="61.3"/>
<rect x="306.59" y="40.86" class="st0" width="20.44" height="61.3"/>
<rect x="40.88" y="102.16" class="st1" width="265.71" height="20.44"/>
<polygon class="st2" points="265.77,30.61 286.21,30.61 286.21,51.01 265.71,51.01 "/>
<rect x="286.15" y="51.03" class="st3" width="20.44" height="20.48"/>
</svg>
